<svg width="114" height="30" viewBox="0 0 114 30" fill="none" xmlns="http://www.w3.org/2000/svg">
<path d="M0 0H102C108.627 0 114 5.37258 114 12V18C114 24.6274 108.627 30 102 30H0V0Z" fill="#D8623E"/>
<path d="M15.692 21V8.4H21.2C22.568 8.4 23.768 8.664 24.8 9.192C25.832 9.72 26.636 10.452 27.212 11.388C27.788 12.324 28.076 13.428 28.076 14.7C28.076 15.96 27.788 17.064 27.212 18.012C26.636 18.948 25.832 19.68 24.8 20.208C23.768 20.736 22.568 21 21.2 21H15.692ZM18.032 19.02H21.092C22.04 19.02 22.856 18.84 23.54 18.48C24.236 18.12 24.77 17.616 25.142 16.968C25.526 16.32 25.718 15.564 25.718 14.7C25.718 13.824 25.526 13.068 25.142 12.432C24.77 11.784 24.236 11.28 23.54 10.92C22.856 10.56 22.04 10.38 21.092 10.38H18.032V19.02ZM37.8651 21.126C36.7971 21.126 35.8611 20.916 35.0571 20.496C34.2651 20.064 33.6471 19.476 33.2031 18.732C32.7711 17.988 32.5551 17.142 32.5551 16.194C32.5551 15.234 32.7651 14.388 33.1851 13.656C33.6171 12.912 34.2051 12.33 34.9491 11.91C35.7051 11.49 36.5631 11.28 37.5231 11.28C38.4591 11.28 39.2931 11.484 40.0251 11.892C40.7571 12.3 41.3331 12.876 41.7531 13.62C42.1731 14.364 42.3831 15.24 42.3831 16.248C42.3831 16.344 42.3771 16.452 42.3651 16.572C42.3651 16.692 42.3591 16.806 42.3471 16.914H34.3371V15.42H41.1591L40.2771 15.888C40.2891 15.336 40.1751 14.85 39.9351 14.43C39.6951 14.01 39.3651 13.68 38.9451 13.44C38.5371 13.2 38.0631 13.08 37.5231 13.08C36.9711 13.08 36.4851 13.2 36.0651 13.44C35.6571 13.68 35.3331 14.016 35.0931 14.448C34.8651 14.868 34.7511 15.366 34.7511 15.942V16.302C34.7511 16.878 34.8831 17.388 35.1471 17.832C35.4111 18.276 35.7831 18.618 36.2631 18.858C36.7431 19.098 37.2951 19.218 37.9191 19.218C38.4591 19.218 38.9451 19.134 39.3771 18.966C39.8091 18.798 40.1931 18.534 40.5291 18.174L41.7351 19.56C41.3031 20.064 40.7571 20.454 40.0971 20.73C39.4491 20.994 38.7051 21.126 37.8651 21.126ZM47.7604 21V8.4H50.1004V19.02H56.6884V21H47.7604ZM65.2999 21.126C64.4839 21.126 63.7639 20.976 63.1399 20.676C62.5159 20.364 62.0299 19.896 61.6819 19.272C61.3339 18.636 61.1599 17.838 61.1599 16.878V11.388H63.4099V16.572C63.4099 17.436 63.6019 18.084 63.9859 18.516C64.3819 18.936 64.9399 19.146 65.6599 19.146C66.1879 19.146 66.6439 19.038 67.0279 18.822C67.4239 18.606 67.7299 18.282 67.9459 17.85C68.1739 17.418 68.2879 16.884 68.2879 16.248V11.388H70.5379V21H68.3959V18.408L68.7739 19.2C68.4499 19.824 67.9759 20.304 67.3519 20.64C66.7279 20.964 66.0439 21.126 65.2999 21.126ZM75.1698 21L79.3998 15.492L79.3638 16.698L75.3318 11.388H77.8338L80.6598 15.168H79.7058L82.5498 11.388H84.9798L80.9118 16.698L80.9298 15.492L85.1418 21H82.6038L79.6338 16.986L80.5698 17.112L77.6538 21H75.1698ZM94.0038 21.126C92.9358 21.126 91.9998 20.916 91.1958 20.496C90.4038 20.064 89.7858 19.476 89.3418 18.732C88.9098 17.988 88.6938 17.142 88.6938 16.194C88.6938 15.234 88.9038 14.388 89.3238 13.656C89.7558 12.912 90.3438 12.33 91.0878 11.91C91.8438 11.49 92.7018 11.28 93.6618 11.28C94.5978 11.28 95.4318 11.484 96.1638 11.892C96.8958 12.3 97.4718 12.876 97.8918 13.62C98.3118 14.364 98.5218 15.24 98.5218 16.248C98.5218 16.344 98.5158 16.452 98.5038 16.572C98.5038 16.692 98.4978 16.806 98.4858 16.914H90.4758V15.42H97.2978L96.4158 15.888C96.4278 15.336 96.3138 14.85 96.0738 14.43C95.8338 14.01 95.5038 13.68 95.0838 13.44C94.6758 13.2 94.2018 13.08 93.6618 13.08C93.1098 13.08 92.6238 13.2 92.2038 13.44C91.7958 13.68 91.4718 14.016 91.2318 14.448C91.0038 14.868 90.8898 15.366 90.8898 15.942V16.302C90.8898 16.878 91.0218 17.388 91.2858 17.832C91.5498 18.276 91.9218 18.618 92.4018 18.858C92.8818 19.098 93.4338 19.218 94.0578 19.218C94.5978 19.218 95.0838 19.134 95.5158 18.966C95.9478 18.798 96.3318 18.534 96.6678 18.174L97.8738 19.56C97.4418 20.064 96.8958 20.454 96.2358 20.73C95.5878 20.994 94.8438 21.126 94.0038 21.126Z" fill="#E9D6C9"/>
</svg>
