<svg width="26" height="26" viewBox="0 0 26 26" fill="none" xmlns="http://www.w3.org/2000/svg">
<path d="M13.1084 20.0958L13 20.2042L12.8809 20.0958C7.73502 15.4267 4.33335 12.3392 4.33335 9.20833C4.33335 7.04167 5.95835 5.41667 8.12502 5.41667C9.79335 5.41667 11.4184 6.5 11.9925 7.97333H14.0075C14.5817 6.5 16.2067 5.41667 17.875 5.41667C20.0417 5.41667 21.6667 7.04167 21.6667 9.20833C21.6667 12.3392 18.265 15.4267 13.1084 20.0958ZM17.875 3.25C15.99 3.25 14.1809 4.1275 13 5.50333C11.8192 4.1275 10.01 3.25 8.12502 3.25C4.78835 3.25 2.16669 5.86083 2.16669 9.20833C2.16669 13.2925 5.85002 16.64 11.4292 21.6992L13 23.1292L14.5709 21.6992C20.15 16.64 23.8334 13.2925 23.8334 9.20833C23.8334 5.86083 21.2117 3.25 17.875 3.25Z" fill="#D8623E"/>
</svg>
