<svg width="30" height="30" viewBox="0 0 30 30" fill="none" xmlns="http://www.w3.org/2000/svg">
<circle cx="15" cy="15" r="15" fill="#E0EBE3"/>
<path d="M15.1087 23.4239L15 23.5326L14.8804 23.4239C9.71739 18.7391 6.30434 15.6413 6.30434 12.5C6.30434 10.3261 7.93478 8.69564 10.1087 8.69564C11.7826 8.69564 13.413 9.7826 13.9891 11.2609H16.0109C16.587 9.7826 18.2174 8.69564 19.8913 8.69564C22.0652 8.69564 23.6956 10.3261 23.6956 12.5C23.6956 15.6413 20.2826 18.7391 15.1087 23.4239ZM19.8913 6.52173C18 6.52173 16.1848 7.40216 15 8.7826C13.8152 7.40216 12 6.52173 10.1087 6.52173C6.76087 6.52173 4.13043 9.14129 4.13043 12.5C4.13043 16.5978 7.82608 19.9565 13.4239 25.0326L15 26.4674L16.5761 25.0326C22.1739 19.9565 25.8696 16.5978 25.8696 12.5C25.8696 9.14129 23.2391 6.52173 19.8913 6.52173Z" fill="#D8623E"/>
</svg>
