<svg width="25" height="25" viewBox="0 0 25 25" fill="none" xmlns="http://www.w3.org/2000/svg">
<path d="M22.2656 12.5C22.2656 12.8108 22.1422 13.1089 21.9224 13.3286C21.7026 13.5484 21.4046 13.6719 21.0938 13.6719H3.90625C3.59545 13.6719 3.29738 13.5484 3.07761 13.3286C2.85784 13.1089 2.73438 12.8108 2.73438 12.5C2.73438 12.1892 2.85784 11.8911 3.07761 11.6714C3.29738 11.4516 3.59545 11.3281 3.90625 11.3281H21.0938C21.4046 11.3281 21.7026 11.4516 21.9224 11.6714C22.1422 11.8911 22.2656 12.1892 22.2656 12.5ZM3.90625 7.42188H21.0938C21.4046 7.42188 21.7026 7.29841 21.9224 7.07864C22.1422 6.85887 22.2656 6.5608 22.2656 6.25C22.2656 5.9392 22.1422 5.64113 21.9224 5.42136C21.7026 5.20159 21.4046 5.07812 21.0938 5.07812H3.90625C3.59545 5.07812 3.29738 5.20159 3.07761 5.42136C2.85784 5.64113 2.73438 5.9392 2.73438 6.25C2.73438 6.5608 2.85784 6.85887 3.07761 7.07864C3.29738 7.29841 3.59545 7.42188 3.90625 7.42188ZM21.0938 17.5781H3.90625C3.59545 17.5781 3.29738 17.7016 3.07761 17.9214C2.85784 18.1411 2.73438 18.4392 2.73438 18.75C2.73438 19.0608 2.85784 19.3589 3.07761 19.5786C3.29738 19.7984 3.59545 19.9219 3.90625 19.9219H21.0938C21.4046 19.9219 21.7026 19.7984 21.9224 19.5786C22.1422 19.3589 22.2656 19.0608 22.2656 18.75C22.2656 18.4392 22.1422 18.1411 21.9224 17.9214C21.7026 17.7016 21.4046 17.5781 21.0938 17.5781Z" fill="#E08165"/>
</svg>
