<svg width="32" height="32" viewBox="0 0 32 32" fill="none" xmlns="http://www.w3.org/2000/svg">
<path d="M16 16C16.7333 16 17.3613 15.7386 17.884 15.216C18.4058 14.6942 18.6667 14.0666 18.6667 13.3333C18.6667 12.6 18.4058 11.972 17.884 11.4493C17.3613 10.9275 16.7333 10.6666 16 10.6666C15.2667 10.6666 14.6391 10.9275 14.1173 11.4493C13.5947 11.972 13.3333 12.6 13.3333 13.3333C13.3333 14.0666 13.5947 14.6942 14.1173 15.216C14.6391 15.7386 15.2667 16 16 16ZM16 25.8C18.7111 23.3111 20.7222 21.0497 22.0333 19.016C23.3444 16.9831 24 15.1777 24 13.6C24 11.1777 23.2276 9.19418 21.6827 7.64929C20.1387 6.10529 18.2444 5.33329 16 5.33329C13.7556 5.33329 11.8609 6.10529 10.316 7.64929C8.772 9.19418 8 11.1777 8 13.6C8 15.1777 8.65555 16.9831 9.96666 19.016C11.2778 21.0497 13.2889 23.3111 16 25.8ZM16 29.3333C12.4222 26.2888 9.75022 23.4608 7.984 20.8493C6.21689 18.2386 5.33333 15.8222 5.33333 13.6C5.33333 10.2666 6.40578 7.61107 8.55067 5.63329C10.6947 3.65551 13.1778 2.66663 16 2.66663C18.8222 2.66663 21.3053 3.65551 23.4493 5.63329C25.5942 7.61107 26.6667 10.2666 26.6667 13.6C26.6667 15.8222 25.7836 18.2386 24.0173 20.8493C22.2502 23.4608 19.5778 26.2888 16 29.3333Z" fill="#3F4851"/>
</svg>
