<svg width="36" height="36" viewBox="0 0 36 36" fill="none" xmlns="http://www.w3.org/2000/svg">
<circle cx="18" cy="18" r="18" fill="#E0EBE3"/>
<g clip-path="url(#clip0_201_1202)">
<path d="M26.18 10.8214H8.03951C7.45613 10.8214 6.9787 11.4453 6.9787 12.0623C6.9787 12.6792 7.45613 13.3026 8.03951 13.3026H8.29574V15.7843H25.9495V13.3026H26.18C26.7638 13.3026 27.2408 12.6792 27.2408 12.0623C27.2408 11.4453 26.7638 10.8214 26.18 10.8214ZM17.1098 14.5539C16.8168 14.5539 16.5796 14.2665 16.5796 13.9126C16.5796 13.5587 16.8168 13.2713 17.1098 13.2713C17.4031 13.2713 17.64 13.5587 17.64 13.9126C17.64 14.2665 17.4031 14.5539 17.1098 14.5539ZM8.29574 20.7472H25.9495V16.7775H8.29574V20.7472ZM17.1098 18.0799C17.4031 18.0799 17.64 18.3668 17.64 18.7207C17.64 19.0751 17.4031 19.3619 17.1098 19.3619C16.8168 19.3619 16.5796 19.0751 16.5796 18.7207C16.5791 18.3668 16.8168 18.0799 17.1098 18.0799ZM8.29574 24.1705V27.0562C8.29574 27.4086 8.33331 27.6975 8.625 27.6975H10.7458C11.0375 27.6975 11.1696 27.4086 11.1696 27.0562V25.2148H23.0757V27.0562C23.0757 27.4086 23.1821 27.6975 23.4733 27.6975H25.5945C25.8854 27.6975 25.9491 27.4086 25.9491 27.0562V21.7409H8.29574V24.1705ZM17.1098 22.8884C17.4031 22.8884 17.64 23.1758 17.64 23.5292C17.64 23.8841 17.4031 24.17 17.1098 24.17C16.8168 24.17 16.5796 23.8841 16.5796 23.5292C16.5791 23.1763 16.8168 22.8884 17.1098 22.8884Z" fill="#D8623E"/>
</g>
<g clip-path="url(#clip1_201_1202)">
<path d="M32.0159 9.15314C32.0166 9.25033 31.99 9.34532 31.94 9.42494C31.8899 9.50456 31.8189 9.56486 31.7367 9.59746L30.0372 10.2847L29.4202 12.1774C29.39 12.2681 29.3355 12.3464 29.2642 12.4016C29.1929 12.4569 29.1081 12.4865 29.0213 12.4865C28.9344 12.4865 28.8496 12.4569 28.7783 12.4016C28.707 12.3464 28.6526 12.2681 28.6223 12.1774L28.0053 10.2847L26.3058 9.59746C26.2244 9.56379 26.1542 9.50317 26.1046 9.42375C26.055 9.34432 26.0284 9.24989 26.0284 9.15314C26.0284 9.0564 26.055 8.96197 26.1046 8.88254C26.1542 8.80311 26.2244 8.74249 26.3058 8.70883L28.0053 8.02162L28.6223 6.12884C28.6526 6.03814 28.707 5.95991 28.7783 5.90467C28.8496 5.84943 28.9344 5.81982 29.0213 5.81982C29.1081 5.81982 29.1929 5.84943 29.2642 5.90467C29.3355 5.95991 29.39 6.03814 29.4202 6.12884L30.0372 8.02162L31.7367 8.70883C31.8189 8.74143 31.8899 8.80172 31.94 8.88134C31.99 8.96096 32.0166 9.05596 32.0159 9.15314Z" fill="#D8623E"/>
</g>
<defs>
<clipPath id="clip0_201_1202">
<rect width="21.1064" height="24.817" fill="white" transform="translate(6.55319 5.36169)"/>
</clipPath>
<clipPath id="clip1_201_1202">
<rect width="6.80851" height="7.58298" fill="white" transform="translate(25.617 5.36169)"/>
</clipPath>
</defs>
</svg>
